<svg xmlns="http://www.w3.org/2000/svg" version="1.1" xmlns:xlink="http://www.w3.org/1999/xlink" width="512" height="512" x="0" y="0" viewBox="0 0 60 60" style="enable-background:new 0 0 512 512" xml:space="preserve"><g><path d="M8.859 53.548a26.052 26.052 0 0 0 43.1-16.793 7.916 7.916 0 0 0-2.172-6.384 8.817 8.817 0 0 0-6.893-2.7 10 10 0 0 1-2.053-.106A224.377 224.377 0 0 0 59.365 5.3a3.338 3.338 0 0 0-4.66-4.66 224.439 224.439 0 0 0-22.261 18.516 10.081 10.081 0 0 1-.1-2.035 8.806 8.806 0 0 0-2.724-6.889 8.068 8.068 0 0 0-6.529-2.175 25.746 25.746 0 0 0-15.457 7.475A26.164 26.164 0 0 0 .013 34.781a25.875 25.875 0 0 0 8.846 18.767zM55.885 2.25a1.338 1.338 0 0 1 1.865 1.865 215.941 215.941 0 0 1-19.785 23.518c-1.843 1.849-3.236 1.924-3.71 1.887l-3.772-3.772c-.042-.5.047-1.883 1.885-3.714A215.938 215.938 0 0 1 55.885 2.25zm-27.8 36.668a13.609 13.609 0 0 1-5.95 3.358l3.569-3.569a1 1 0 0 0-1.414-1.414l-5.622 5.622c-.648.06-1.219.082-1.671.085 0-.451.025-1.022.084-1.67l5.623-5.623a1 1 0 0 0-1.414-1.414l-3.57 3.57a13.619 13.619 0 0 1 3.358-5.95 6.594 6.594 0 0 1 4.694-1.954c.206 0 .378.01.509.021l3.735 3.735a6.594 6.594 0 0 1-1.928 5.203zm-11.242 8.515a3.076 3.076 0 0 1-4.256 0 3 3 0 0 1 2.43-5.116c-.017.327-.017.627-.017.883a1.825 1.825 0 0 0 1.888 1.8c.236 0 .514-.007.81-.018a2.981 2.981 0 0 1-.855 2.451zm14.831-14.891-4.208-4.208 1.385-1.391 4.2 4.2zM9.049 16.945a23.775 23.775 0 0 1 14.263-6.9 6.088 6.088 0 0 1 4.933 1.644 6.8 6.8 0 0 1 2.1 5.33 12.1 12.1 0 0 0 .42 3.806 7.459 7.459 0 0 0-2.247 4.156 1.981 1.981 0 0 0-1.061.546l-1.41 1.4a1.978 1.978 0 0 0-.547 1.043 8.553 8.553 0 0 0-5.831 2.53 16.9 16.9 0 0 0-4.479 9.828 5.011 5.011 0 1 0 4.5 4.482 16.894 16.894 0 0 0 9.81-4.476 8.552 8.552 0 0 0 2.53-5.834 2 2 0 0 0 1.045-.548l1.4-1.407a1.982 1.982 0 0 0 .548-1.065 7.446 7.446 0 0 0 4.145-2.238 12.038 12.038 0 0 0 3.83.423 6.837 6.837 0 0 1 5.336 2.081 5.95 5.95 0 0 1 1.635 4.795 24.051 24.051 0 0 1-47.957-1.822 23.839 23.839 0 0 1 7.037-17.774z" fill="#000000" opacity="1" data-original="#000000"></path><path d="M35.5 47.861a4.954 4.954 0 0 0 3.1 1.091 5.078 5.078 0 0 0 .575-.033 5.015 5.015 0 0 0 2.547-8.913 5.011 5.011 0 0 0-6.222 7.855zm.756-5.8a3.011 3.011 0 1 1 2.7 4.869 2.963 2.963 0 0 1-2.2-.634 3.033 3.033 0 0 1-.504-4.233zM9.762 38.048c.091.006.183.008.274.008a5.014 5.014 0 0 0 3.746-8.349 4.939 4.939 0 0 0-3.447-1.665 5.011 5.011 0 1 0-.577 10.006zm.464-8.01a2.965 2.965 0 0 1 2.065 1 3.014 3.014 0 1 1-2.065-1zM26.983 55c.092 0 .184 0 .276-.008a5.017 5.017 0 1 0-5.287-4.719A5.031 5.031 0 0 0 26.983 55zm-2.256-7.022a2.967 2.967 0 0 1 2.073-.995c.06 0 .121-.005.18-.005a3 3 0 0 1 2.992 2.831 3.007 3.007 0 1 1-6 .342 2.982 2.982 0 0 1 .755-2.177zM15.513 26.37a5.091 5.091 0 0 0 .578.033 5.015 5.015 0 0 0 3.924-8.124 5.011 5.011 0 1 0-7.848 6.233 4.958 4.958 0 0 0 3.346 1.858zm-1.3-7.337a3.011 3.011 0 1 1 1.529 5.35 2.975 2.975 0 0 1-2.007-1.114 3.026 3.026 0 0 1 .476-4.236z" fill="#000000" opacity="1" data-original="#000000"></path></g></svg>